<mxfile host="app.diagrams.net" modified="2023-09-19T22:34:13.601Z" agent="Mozilla/5.0 (X11; Linux x86_64) AppleWebKit/537.36 (KHTML, like Gecko) Chrome/116.0.0.0 Safari/537.36" version="21.7.5" etag="oMJl0a64xtN1_PkVi2-i" type="github">
  <diagram name="Page-1" id="DP7fgTd3pIORyWolhhUW">
    <mxGraphModel>
      <root>
        <mxCell id="0" />
        <mxCell id="1" parent="0" />
      </root>
    </mxGraphModel>
  </diagram>
</mxfile>
